<!---
 Copyright 2018 herd-ui contributors

 Licensed under the Apache License, Version 2.0 (the "License");
 you may not use this file except in compliance with the License.
 You may obtain a copy of the License at

     http://www.apache.org/licenses/LICENSE-2.0

 Unless required by applicable law or agreed to in writing, software
 distributed under the License is distributed on an "AS IS" BASIS,
 WITHOUT WARRANTIES OR CONDITIONS OF ANY KIND, either express or implied.
 See the License for the specific language governing permissions and
 limitations under the License.
-->
<?xml version="1.0" encoding="utf-8"?>
<!-- Generator: Adobe Illustrator 20.0.0, SVG Export Plug-In . SVG Version: 6.00 Build 0)  -->
<!DOCTYPE svg PUBLIC "-//W3C//DTD SVG 1.1//EN" "http://www.w3.org/Graphics/SVG/1.1/DTD/svg11.dtd">
<svg version="1.1" id="Layer_1" xmlns="http://www.w3.org/2000/svg" xmlns:xlink="http://www.w3.org/1999/xlink" x="0px" y="0px"
	 viewBox="0 0 48 48" style="enable-background:new 0 0 48 48;" xml:space="preserve">
<style type="text/css">
	.st0{fill:#0C8BEA;}
</style>
<path class="st0" d="M35.7,17.2c-0.5-0.5-1.4-0.5-1.9,0c-0.5,0.5-0.5,1.4,0,1.9l3.7,3.7h-8.9v14.8h-3.3V8.1H7.7v9.7h7.8v12.9h-4.2
	v-7.8H1.7v2.8h6.8v7.8h9.7V15h-7.8v-4.2h12v29.6h8.8V25.6h6.2l-3.7,3.7c-0.5,0.5-0.5,1.4,0,1.9c0.3,0.3,0.6,0.4,1,0.4s0.7-0.1,1-0.4
	l7.1-7.1L35.7,17.2z"/>
<path d="M43,1.9H4.7c-1.8,0-3.2,1.5-3.2,3.2v15.3h3V5.1c0-0.1,0.1-0.2,0.2-0.2H43c0.1,0,0.2,0.1,0.2,0.2v38.3c0,0.1-0.1,0.2-0.2,0.2
	H4.7c-0.1,0-0.2-0.1-0.2-0.2V28.1h-3v15.3c0,1.8,1.5,3.2,3.2,3.2H43c1.8,0,3.2-1.5,3.2-3.2V5.1C46.2,3.3,44.7,1.9,43,1.9z"/>
</svg>
